<?xml version="1.0" standalone="no"?>
<!DOCTYPE svg PUBLIC "-//W3C//DTD SVG 20010904//EN"
 "http://www.w3.org/TR/2001/REC-SVG-20010904/DTD/svg10.dtd">
<svg version="1.0" xmlns="http://www.w3.org/2000/svg"
 width="800.000000pt" height="420.000000pt" viewBox="0 0 800.000000 420.000000"
 preserveAspectRatio="xMidYMid meet">

<g transform="translate(0.000000,420.000000) scale(0.100000,-0.100000)"
fill="#000000" stroke="none">
<path d="M3040 3843 c0 -9 -17 -142 -100 -763 -33 -250 -74 -556 -90 -680 -16
-124 -56 -432 -89 -685 -33 -253 -63 -475 -66 -492 l-6 -33 260 0 c143 0 262
-3 264 -7 4 -7 0 -49 -33 -288 -31 -232 -70 -530 -70 -537 0 -5 422 -7 937 -6
l938 3 7 50 c4 28 32 246 63 485 57 445 79 610 160 1230 100 772 95 718 79
769 -11 35 -25 54 -61 81 l-46 35 -190 3 -189 4 7 51 c62 459 79 609 71 650
-9 48 -70 109 -124 125 -45 14 -1722 18 -1722 5z"/>
</g>
</svg>
